<svg width="16" height="17" viewBox="0 0 16 17" fill="none" xmlns="http://www.w3.org/2000/svg">
<mask id="path-1-inside-1_2838_37772" fill="white">
<path d="M8 14.5H3C2.44772 14.5 2 14.0523 2 13.5L2 3.5C2 2.94771 2.44772 2.5 3 2.5H8L8 14.5Z"/>
</mask>
<path d="M8 15.5H3C1.89543 15.5 1 14.6046 1 13.5H3H8V15.5ZM1 3.5C1 2.39543 1.89543 1.5 3 1.5H8V3.5H3H1ZM8 2.5L8 14.5L8 2.5ZM3 15.5C1.89543 15.5 1 14.6046 1 13.5L1 3.5C1 2.39543 1.89543 1.5 3 1.5V3.5L3 13.5V15.5Z" fill="#2D2D2D" mask="url(#path-1-inside-1_2838_37772)"/>
<line x1="5" y1="8.5" x2="13" y2="8.5" stroke="#2D2D2D"/>
<path d="M10.5 6L13 8.5L10.5 11" stroke="#2D2D2D" stroke-width="0.95"/>
</svg>
