<svg width="17" height="16" viewBox="0 0 17 16" fill="none" xmlns="http://www.w3.org/2000/svg">
<path d="M14.4997 8.89978C14.063 11.7865 11.5581 13.9996 8.53354 13.9996C5.2013 13.9996 2.5 11.3134 2.5 7.99981C2.5 4.68619 5.2013 1.99997 8.53354 1.99997C11.0076 1.99997 13.134 3.48084 14.065 5.59987" stroke="#2D2D2D" stroke-linecap="round" stroke-linejoin="round"/>
<path d="M14.4997 8.89978C14.063 11.7865 11.5581 13.9996 8.53354 13.9996C5.2013 13.9996 2.5 11.3134 2.5 7.99981C2.5 4.68619 5.2013 1.99997 8.53354 1.99997C11.0076 1.99997 13.134 3.48084 14.065 5.59987" stroke="black" stroke-opacity="0.2" stroke-linecap="round" stroke-linejoin="round"/>
<path d="M14.4997 8.89978C14.063 11.7865 11.5581 13.9996 8.53354 13.9996C5.2013 13.9996 2.5 11.3134 2.5 7.99981C2.5 4.68619 5.2013 1.99997 8.53354 1.99997C11.0076 1.99997 13.134 3.48084 14.065 5.59987" stroke="black" stroke-opacity="0.2" stroke-linecap="round" stroke-linejoin="round"/>
<path d="M14.5081 2.31589V6.10526H10.7188" stroke="#2D2D2D" stroke-linejoin="round"/>
<path d="M14.5081 2.31589V6.10526H10.7188" stroke="black" stroke-opacity="0.2" stroke-linejoin="round"/>
<path d="M14.5081 2.31589V6.10526H10.7188" stroke="black" stroke-opacity="0.2" stroke-linejoin="round"/>
</svg>
